<?xml version="1.0" encoding="utf-8"?>
<!-- Generator: Adobe Illustrator 18.0.0, SVG Export Plug-In . SVG Version: 6.00 Build 0)  -->
<!DOCTYPE svg PUBLIC "-//W3C//DTD SVG 1.1//EN" "http://www.w3.org/Graphics/SVG/1.1/DTD/svg11.dtd">
<svg version="1.1" id="Layer_1" xmlns="http://www.w3.org/2000/svg" xmlns:xlink="http://www.w3.org/1999/xlink" x="0px" y="0px"
	 viewBox="0 0 300 75" enable-background="new 0 0 300 75" xml:space="preserve">
<g transform="matrix( 1, 0, 0, 1, 0,0) ">
	<g>
		<g id="Layer0_0_FILL">
			<path fill="#00D4C3" d="M60.1,1.1c-0.1,0.1-0.2,0.2-0.2,0.3l-7.2,26.7L45.1,1.4c0-0.1-0.1-0.2-0.2-0.3C44.8,1,44.7,1,44.6,1H33.9
				c-0.1,0-0.3,0.1-0.3,0.2c-0.1,0.1-0.2,0.2-0.2,0.4v41.1c0,0.2,0.1,0.3,0.2,0.4c0.1,0.1,0.2,0.2,0.3,0.2H41c0.1,0,0.3-0.1,0.4-0.2
				c0.1-0.1,0.2-0.3,0.2-0.4V17l7.6,25.9c0,0.1,0.1,0.2,0.2,0.3c0.1,0.1,0.2,0.1,0.3,0.1h5.8c0.1,0,0.2,0,0.3-0.1
				c0.1-0.1,0.1-0.2,0.2-0.3l7.5-26.1v25.9c0,0.2,0.1,0.3,0.2,0.4c0.1,0.1,0.2,0.2,0.4,0.2H71c0.1,0,0.3-0.1,0.4-0.2
				c0.1-0.1,0.1-0.3,0.1-0.4V1.5c0-0.2,0-0.3-0.1-0.4C71.3,1,71.2,1,71,1H60.4C60.3,1,60.2,1,60.1,1.1 M14.5,0
				C13,0,11.4,0.3,9.8,0.8C8.2,1.3,6.7,2.1,5.4,3.1v0C4.2,4.3,3.1,5.6,2.3,7.2C1.9,8.1,1.6,9,1.5,9.9c-0.2,1-0.3,2-0.3,3.1
				c0,2,0.3,3.7,1,5.1c0.6,1.4,1.4,2.6,2.5,3.5c1,0.9,2.1,1.7,3.4,2.3h0l3.8,1.4h0l6.9,2.4c0.9,0.4,1.6,1,2.2,1.6
				c0.5,0.6,0.8,1.4,0.8,2.3c0,0.9-0.2,1.6-0.6,2.2c-0.4,0.6-0.9,1.1-1.5,1.4v0c-0.6,0.4-1.3,0.6-2,0.7l-2.2,0.2
				c-0.9,0-1.8-0.1-2.7-0.4c-0.9-0.3-1.6-0.7-2.3-1.3c-0.6-0.5-1.1-1.2-1.5-2.1c-0.4-0.9-0.6-2-0.6-3.3c0-0.2,0-0.3-0.1-0.4
				c-0.1-0.1-0.2-0.2-0.4-0.2H0.5c-0.1,0-0.3,0.1-0.3,0.2C0.1,28.7,0,28.9,0,29c0,2.6,0.4,4.9,1.2,6.8h0c0.4,0.9,0.9,1.8,1.4,2.6
				c0.6,0.8,1.2,1.5,2,2.1c1.4,1.2,3,2.1,4.9,2.7c1.8,0.6,3.7,0.9,5.6,0.9c1.6,0,3.7-0.3,6.3-1c0,0,0,0,0.1,0
				c1.8-0.7,3.4-1.6,4.6-2.8v0c1.3-1.2,2.2-2.7,2.9-4.4c0.6-1.7,0.9-3.5,0.9-5.5c0-2.4-0.4-4.4-1.3-6c-0.8-1.5-1.9-2.8-3-3.7
				c-1.2-0.9-2.4-1.6-3.6-2l-7.9-2.5L11.1,15h0c-0.6-0.3-1-0.7-1.3-1.1c-0.2-0.4-0.3-1-0.3-1.7c0-0.8,0.1-1.4,0.4-1.9h0
				c0.3-0.5,0.7-0.9,1.1-1.3c0.4-0.3,0.9-0.6,1.4-0.7l1.8-0.2l2.5,0.3c0.7,0.2,1.3,0.5,1.8,0.9c0,0,0,0,0,0c0.5,0.4,1,0.9,1.3,1.7
				c0.3,0.7,0.5,1.7,0.6,2.8c0,0.1,0.1,0.3,0.2,0.4c0.1,0.1,0.2,0.2,0.4,0.2h7.3c0.1,0,0.3-0.1,0.4-0.2c0.1-0.1,0.1-0.3,0.1-0.4
				c0-1.2-0.1-2.4-0.3-3.4c-0.2-1.1-0.5-2-0.9-2.9c-0.8-1.7-1.9-3.2-3.2-4.3c-1.3-1.1-2.9-1.9-4.6-2.4C18.1,0.3,16.4,0,14.5,0
				 M177.5,1.1C177.5,1,177.3,1,177.2,1H149c-0.1,0-0.3,0.1-0.4,0.2c-0.1,0.1-0.2,0.2-0.2,0.4v7.6c0,0.2,0.1,0.3,0.2,0.4
				c0.1,0.1,0.2,0.2,0.4,0.2h9.8v33c0,0.2,0.1,0.3,0.2,0.4c0.1,0.1,0.2,0.2,0.3,0.2h7.6c0.1,0,0.3-0.1,0.4-0.2
				c0.1-0.1,0.1-0.3,0.1-0.4v-33h9.9c0.1,0,0.3-0.1,0.3-0.2c0.1-0.1,0.2-0.2,0.2-0.4V1.5C177.7,1.4,177.6,1.2,177.5,1.1 M85.6,1.1
				C85.5,1,85.4,1,85.3,1h-7.6c-0.1,0-0.3,0.1-0.3,0.2c-0.1,0.1-0.2,0.2-0.2,0.4v41.1c0,0.2,0.1,0.3,0.2,0.4
				c0.1,0.1,0.2,0.2,0.3,0.2h7.6c0.1,0,0.3-0.1,0.3-0.2c0.1-0.1,0.2-0.3,0.2-0.4V1.5C85.7,1.4,85.7,1.2,85.6,1.1 M91.5,1.1
				c-0.1,0.1-0.2,0.2-0.2,0.4v41.1c0,0.2,0.1,0.3,0.2,0.4c0.1,0.1,0.2,0.2,0.4,0.2h24.4c0.1,0,0.3-0.1,0.4-0.2
				c0.1-0.1,0.1-0.3,0.1-0.4v-7.6c0-0.1,0-0.3-0.1-0.4c-0.1-0.1-0.2-0.2-0.4-0.2H100v-33c0-0.2-0.1-0.3-0.2-0.4
				C99.7,1,99.6,1,99.5,1h-7.6C91.7,1,91.6,1,91.5,1.1 M120.1,1.1C120,1.2,120,1.4,120,1.5v41.1c0,0.2,0.1,0.3,0.2,0.4
				c0.1,0.1,0.2,0.2,0.4,0.2h26.1c0.1,0,0.3-0.1,0.4-0.2c0.1-0.1,0.1-0.3,0.1-0.4v-7.6c0-0.1,0-0.3-0.1-0.4
				c-0.1-0.1-0.2-0.2-0.4-0.2h-18v-9h16.2c0.1,0,0.3-0.1,0.4-0.2c0.1-0.1,0.1-0.3,0.1-0.4v-7c0-0.2,0-0.3-0.1-0.4
				c-0.1-0.1-0.2-0.2-0.4-0.2h-16.2V9.7h17.7c0.1,0,0.3-0.1,0.4-0.2c0.1-0.1,0.1-0.2,0.1-0.4V1.5c0-0.2,0-0.3-0.1-0.4
				C146.5,1,146.4,1,146.2,1h-25.7C120.3,1,120.2,1,120.1,1.1 M228.5,1.1c-0.1,0.1-0.2,0.2-0.2,0.4v41.1c0,0.2,0.1,0.3,0.2,0.4
				c0.1,0.1,0.2,0.2,0.3,0.2h7.6c0.1,0,0.3-0.1,0.4-0.2c0.1-0.1,0.1-0.3,0.1-0.4V1.5c0-0.2,0-0.3-0.1-0.4C236.7,1,236.6,1,236.4,1
				h-7.6C228.7,1,228.6,1,228.5,1.1 M268.9,1.1C268.8,1,268.7,1,268.6,1h-28.2c-0.1,0-0.3,0.1-0.4,0.2c-0.1,0.1-0.2,0.2-0.2,0.4v7.6
				c0,0.2,0.1,0.3,0.2,0.4c0.1,0.1,0.2,0.2,0.4,0.2h9.8v33c0,0.2,0.1,0.3,0.2,0.4c0.1,0.1,0.2,0.2,0.3,0.2h7.6
				c0.1,0,0.3-0.1,0.4-0.2c0.1-0.1,0.1-0.3,0.1-0.4v-33h9.8c0.1,0,0.3-0.1,0.4-0.2c0.1-0.1,0.2-0.2,0.2-0.4V1.5
				C269.1,1.4,269,1.2,268.9,1.1 M217.1,3.9c-0.9-0.7-1.8-1.2-2.8-1.6c-1-0.4-2-0.8-3.1-1c0,0,0,0-0.1,0L208,1c0,0,0,0-0.1,0h-14.8
				c-0.1,0-0.3,0.1-0.4,0.2c-0.1,0.1-0.2,0.2-0.2,0.4v41.1c0,0.2,0.1,0.3,0.2,0.4c0.1,0.1,0.2,0.2,0.4,0.2H208
				c1.3,0,2.6-0.1,3.8-0.4c1.2-0.3,2.3-0.7,3.3-1.2h0c2-1.1,3.7-2.6,5-4.5h0c0.7-0.9,1.2-2,1.7-3.1c0.5-1.1,1-2.4,1.3-3.6v0
				c0.6-2.6,1-5.4,1-8.4c0-3.5-0.4-6.6-1.2-9.1c-0.4-1.3-0.9-2.5-1.4-3.6c-0.6-1.1-1.2-2.1-2-2.9C218.8,5.4,218,4.6,217.1,3.9
				 M201.6,34.5V9.7h4.9c1.8,0,3.3,0.3,4.5,0.9c1.2,0.6,2.1,1.5,2.9,2.6c0.7,1.1,1.3,2.5,1.6,4.1c0.3,1.6,0.5,3.4,0.5,5.5
				c0,2.2-0.2,4.1-0.7,5.6c-0.5,1.5-1.1,2.7-1.8,3.6c-0.8,0.9-1.6,1.6-2.5,2c-1,0.4-2,0.6-3,0.6H201.6 M299.8,1.1
				C299.7,1,299.6,1,299.4,1h-28.2c-0.1,0-0.3,0.1-0.4,0.2c-0.1,0.1-0.2,0.2-0.2,0.4v7.6c0,0.2,0.1,0.3,0.2,0.4
				c0.1,0.1,0.2,0.2,0.4,0.2h9.8v33c0,0.2,0.1,0.3,0.2,0.4c0.1,0.1,0.2,0.2,0.4,0.2h7.5c0.1,0,0.3-0.1,0.4-0.2
				c0.1-0.1,0.2-0.3,0.2-0.4v-33h9.8c0.1,0,0.3-0.1,0.4-0.2c0.1-0.1,0.1-0.2,0.1-0.4V1.5C299.9,1.4,299.9,1.2,299.8,1.1z"/>
		</g>
	</g>
</g>
<g transform="matrix( 0.389312744140625, 0, 0, 0.389312744140625, 27.55,216.35) ">
	<g>
		<defs>
			<rect id="SVGID_1_" x="-59.4" y="-414" width="14.5" height="28.3"/>
		</defs>
		<clipPath id="SVGID_2_">
			<use xlink:href="#SVGID_1_"  overflow="visible"/>
		</clipPath>
		
			<text transform="matrix(2.5686 0 0 2.5686 -69.5593 -377.5818)" fill="#FFFFFF" font-family="'HelveticaNeue'" font-size="23.4755">T</text>
	</g>
</g>
<g transform="matrix( 0.389312744140625, 0, 0, 0.389312744140625, 74.2,216.35) ">
	<g>
		<defs>
			<rect id="SVGID_3_" x="-105.6" y="-414" width="16.2" height="28.3"/>
		</defs>
		<clipPath id="SVGID_4_">
			<use xlink:href="#SVGID_3_"  overflow="visible"/>
		</clipPath>
		
			<text transform="matrix(2.5686 0 0 2.5686 -117.1304 -377.5818)" fill="#FFFFFF" font-family="'HelveticaNeue'" font-size="23.4755">A</text>
	</g>
</g>
<g transform="matrix( 0.389312744140625, 0, 0, 0.389312744140625, 123.75,216.35) ">
	<g>
		<defs>
			<rect id="SVGID_5_" x="-154.8" y="-414" width="17.9" height="28.3"/>
		</defs>
		<clipPath id="SVGID_6_">
			<use xlink:href="#SVGID_5_"  overflow="visible"/>
		</clipPath>
		
			<text transform="matrix(2.5686 0 0 2.5686 -167.6581 -377.5818)" fill="#FFFFFF" font-family="'HelveticaNeue'" font-size="23.4755">N</text>
	</g>
</g>
<g transform="matrix( 0.389312744140625, 0, 0, 0.389312744140625, 175.65,216.35) ">
	<g>
		<defs>
			<rect id="SVGID_7_" x="-207.7" y="-414" width="17.9" height="28.3"/>
		</defs>
		<clipPath id="SVGID_8_">
			<use xlink:href="#SVGID_7_"  overflow="visible"/>
		</clipPath>
		
			<text transform="matrix(2.5686 0 0 2.5686 -220.5848 -377.5818)" fill="#FFFFFF" font-family="'HelveticaNeue'" font-size="23.4755">N</text>
	</g>
</g>
<g transform="matrix( 0.389312744140625, 0, 0, 0.389312744140625, 227.55,216.35) ">
	<g>
		<defs>
			<rect id="SVGID_9_" x="-261.7" y="-414" width="16.6" height="28.3"/>
		</defs>
		<clipPath id="SVGID_10_">
			<use xlink:href="#SVGID_9_"  overflow="visible"/>
		</clipPath>
		
			<text transform="matrix(2.5686 0 0 2.5686 -273.5091 -377.5818)" fill="#FFFFFF" font-family="'HelveticaNeue'" font-size="23.4755">K</text>
	</g>
</g>
<g transform="matrix( 0.389312744140625, 0, 0, 0.389312744140625, 277.3,216.35) ">
	<g>
		<defs>
			<rect id="SVGID_11_" x="-314.4" y="-414" width="14" height="28.3"/>
		</defs>
		<clipPath id="SVGID_12_">
			<use xlink:href="#SVGID_11_"  overflow="visible"/>
		</clipPath>
		
			<text transform="matrix(2.5686 0 0 2.5686 -324.242 -377.5818)" fill="#FFFFFF" font-family="'HelveticaNeue'" font-size="23.4755">L</text>
	</g>
</g>
<g transform="matrix( 0.389312744140625, 0, 0, 0.389312744140625, 322.7,216.35) ">
	<g>
		<defs>
			<rect id="SVGID_13_" x="-366.2" y="-414" width="7.1" height="28.3"/>
		</defs>
		<clipPath id="SVGID_14_">
			<use xlink:href="#SVGID_13_"  overflow="visible"/>
		</clipPath>
		
			<text transform="matrix(2.5686 0 0 2.5686 -370.539 -377.5818)" fill="#FFFFFF" font-family="'HelveticaNeue'" font-size="23.4755">I</text>
	</g>
</g>
<g transform="matrix( 0.389312744140625, 0, 0, 0.389312744140625, 356.05,216.35) ">
	<g>
		<defs>
			<rect id="SVGID_15_" x="-386.5" y="-414" width="17.9" height="28.3"/>
		</defs>
		<clipPath id="SVGID_16_">
			<use xlink:href="#SVGID_15_"  overflow="visible"/>
		</clipPath>
		
			<text transform="matrix(2.5686 0 0 2.5686 -399.412 -377.5818)" fill="#FFFFFF" font-family="'HelveticaNeue'" font-size="23.4755">N</text>
	</g>
</g>
<g transform="matrix( 0.389312744140625, 0, 0, 0.389312744140625, 407.95,216.35) ">
	<g>
		<defs>
			<rect id="SVGID_17_" x="-448" y="-414" width="7.1" height="28.3"/>
		</defs>
		<clipPath id="SVGID_18_">
			<use xlink:href="#SVGID_17_"  overflow="visible"/>
		</clipPath>
		
			<text transform="matrix(2.5686 0 0 2.5686 -452.3338 -377.5818)" fill="#FFFFFF" font-family="'HelveticaNeue'" font-size="23.4755">I</text>
	</g>
</g>
<g transform="matrix( 0.389312744140625, 0, 0, 0.389312744140625, 441.35,216.35) ">
	<g>
		<defs>
			<rect id="SVGID_19_" x="-472" y="-414" width="16.6" height="28.3"/>
		</defs>
		<clipPath id="SVGID_20_">
			<use xlink:href="#SVGID_19_"  overflow="visible"/>
		</clipPath>
		
			<text transform="matrix(2.5686 0 0 2.5686 -483.8262 -377.5818)" fill="#FFFFFF" font-family="'HelveticaNeue'" font-size="23.4755">K</text>
	</g>
</g>
<g transform="matrix( 0.389312744140625, 0, 0, 0.389312744140625, 491.1,216.35) ">
	<g>
		<defs>
			<rect id="SVGID_21_" x="-520.6" y="-414" width="16.6" height="28.3"/>
		</defs>
		<clipPath id="SVGID_22_">
			<use xlink:href="#SVGID_21_"  overflow="visible"/>
		</clipPath>
		
			<text transform="matrix(2.5686 0 0 2.5686 -532.4128 -377.5818)" fill="#FFFFFF" font-family="'HelveticaNeue'" font-size="23.4755">K</text>
	</g>
</g>
</svg>
